<?xml version="1.0" standalone="yes"?>
<svg xmlns="http://www.w3.org/2000/svg" width="256" height="256">
<path style="fill:#010101; stroke:none;" d="M0 0L0 68L49 68C56.0646 68 65.2007 66.4726 72 68.5139C80.3539 71.0219 88.0273 81.8774 93.9066 87.9599C101.906 96.2351 115.001 105.367 119.861 116.004C122.761 122.35 121 132.145 121 139L121 189L94 189L94 127C94 117.657 95.4195 107.265 87.8951 100.214C80.6385 93.4137 70.1246 95 61 95L0 95L0 256L256 256L256 95L194 95C184.657 95 174.265 93.5804 167.214 101.105C160.414 108.361 162 118.875 162 128L162 189L134 189L134 141C134 133.009 132.612 123.485 135.97 116C140.753 105.337 153.83 96.1698 162 88C168.05 81.9502 175.548 71.0512 184 68.5139C190.799 66.4726 199.935 68 207 68L256 68L256 0L0 0z"/>
<path style="fill:#017dc5; stroke:none;" d="M0 68L0 95L61 95C70.5622 95 80.5145 93.7244 87.8951 101.105C95.2756 108.486 94 118.438 94 128L94 189L121 189L121 138C121 131.176 122.782 121.319 119.861 115.015C115.372 105.328 103.545 97.5808 96.4861 89.8156C90.4449 83.1695 81.8716 71.1773 73 68.5139C65.9225 66.3891 56.3566 68 49 68L0 68M134 189L162 189L162 128C162 118.438 160.724 108.486 168.105 101.105C175.486 93.7243 185.438 95 195 95L256 95L256 68L207 68C199.643 68 190.077 66.3891 183 68.5139C174.883 70.9509 167.803 81.1969 162 87C153.83 95.1698 140.753 104.337 135.97 115C132.612 122.485 134 132.009 134 140L134 189z"/>
</svg>
